<svg xmlns="http://www.w3.org/2000/svg" version="1.1" xmlnsXlink="http://www.w3.org/1999/xlink" xmlnsSvgjs="http://svgjs.dev/svgjs" width="1000" height="623" viewBox="0 0 1000 623"><g transform="matrix(1,0,0,1,-0.6060606060606233,0.2522267206477409)"><svg viewBox="0 0 396 247" data-background-color="#ffffff" preserveAspectRatio="xMidYMid meet" height="623" width="1000" xmlns="http://www.w3.org/2000/svg" xmlnsXlink="http://www.w3.org/1999/xlink"><g id="tight-bounds" transform="matrix(1,0,0,1,0.2400000000000091,-0.09999999999999432)"><svg viewBox="0 0 395.52 247.2" height="247.2" width="395.52"><g><svg></svg></g><g><svg viewBox="0 0 395.52 247.2" height="247.2" width="395.52"><g transform="matrix(1,0,0,1,144.26797388724034,47.215199999999996)"><svg viewBox="0 0 106.98405222551928 152.7696" height="152.7696" width="106.98405222551928"><g><svg viewBox="0 0 106.98405222551928 152.7696" height="152.7696" width="106.98405222551928"><g><svg viewBox="0 0 106.98405222551928 152.7696" height="152.7696" width="106.98405222551928"><g><svg viewBox="0 0 106.98405222551928 152.7696" height="152.7696" width="106.98405222551928"><g id="textblocktransform"><svg viewBox="0 0 106.98405222551928 152.7696" height="152.7696" width="106.98405222551928" id="textblock"><g><svg viewBox="0 0 106.98405222551928 152.7696" height="152.7696" width="106.98405222551928"><g transform="matrix(1,0,0,1,0,0)"><svg width="106.98405222551928" viewBox="4 -33.70000076293945 23.600000381469727 33.70000076293945" height="152.7696" data-palette-color="#35a3a1"><path d="M27.6-33.7L27.6 0 24.5 0 24.5-15.75 7.1-15.75 7.1 0 4 0 4-33.7 7.1-33.7 7.1-18.6 24.5-18.6 24.5-33.7 27.6-33.7Z" opacity="1" transform="matrix(1,0,0,1,0,0)" fill="#35a3a1" class="wordmark-text-0" data-fill-palette-color="primary" id="text-0"></path></svg></g></svg></g></svg></g></svg></g></svg></g></svg></g></svg></g><path d="M68.951 41.215L68.951 0 316.151 0 316.151 247.2 68.951 247.2 68.951 205.985 82.728 205.985 82.728 233.423 302.374 233.423 302.374 13.777 82.728 13.777 82.728 41.215Z" fill="#35a3a1" stroke="transparent" data-fill-palette-color="primary"></path></svg></g><defs></defs></svg><rect width="395.52" height="247.2" fill="none" stroke="none" visibility="hidden"></rect></g></svg></g></svg>